<?xml version="1.0" encoding="utf-8"?>
<!-- Generator: Adobe Illustrator 22.0.1, SVG Export Plug-In . SVG Version: 6.00 Build 0)  -->
<svg version="1.1" id="Layer_1" xmlns="http://www.w3.org/2000/svg" xmlns:xlink="http://www.w3.org/1999/xlink" x="0px" y="0px"
	 viewBox="0 0 1226.3 2128.3" style="enable-background:new 0 0 1226.3 2128.3;" xml:space="preserve">
<style type="text/css">
	.st0{fill:#000082;}
	.st1{fill:#6776C1;}
	.st2{fill:#FFFFFF;}
	.st3{fill:#0000F4;}
	.st4{fill:#1A1851;}
	.st5{fill:#0D0D44;}
	.st6{fill:#0A0A30;}
</style>
<title>sbg7</title>
<path class="st0" d="M1199.7,1293.3c45.7,136.9,28.2,288-19.8,441.1s-125.5,307.7-250.2,366c-124.7,58.4-295.6,20.2-397-69.5
	s-133.5-231-242.3-383.5s-294-316.7-290.3-457.6s196.7-258.4,384.4-300.6c174.3-40,357.2-16,515.3,67.5
	C1045.2,1034.1,1154,1156.4,1199.7,1293.3z"/>
<path class="st1" d="M329.1,1014c68.8-110,188.5-209.9,301.1-202.6s217.3,122.2,305.2,232s158.2,215,180.6,342.5
	s-3.1,277.3-91,382.7s-237.7,165.3-395.9,173.6s-324.8-35.4-393.4-140.5s-39.3-271.6-16.1-414.7S260.5,1123.9,329.1,1014z"/>
<path class="st2" d="M381.6,1048.7c63.8-94.1,160.7-114.9,259-105s197.5,51.1,270.9,150s49.8,199.1,65.4,311.4s70.4,237-9.9,326.4
	S753.6,1868.7,614.8,1871s-219.9-90.2-276.5-184.3s-89.2-190.3-64.4-314.8S318.1,1142.8,381.6,1048.7z"/>
<path class="st3" d="M420.9,1073.9c54.7-83.3,120.9-28,205.3-19.2s186.3-28.4,249.3,59.1s-8.5,185.4,4.9,284.7s111.6,200,42.7,279.1
	S740.1,1799,621,1800.8s-119.4-106.9-168-190.2s-145.8-141-124.5-251.1S366.4,1157,420.9,1073.9z"/>
<path class="st4" d="M753.8,1445.5c-10.2,73.3,5.3,168.5-27.1,194s-112.8-18.7-180-81.7S425.2,1413.3,440,1343.9
	s98.3-126.4,175.6-136.8s148.5,26,166.2,69.8S763.9,1372.3,753.8,1445.5z"/>
<path class="st5" d="M184.5,779.9c-12.1-23.9-12.9-52.1-8.3-81.5s14.8-59.9,36.1-74s53.7-11.7,74.8,2.1s30.7,38.8,54.8,63.9
	s62.5,50.3,65.6,76.2s-29.2,52.8-62.5,65.6c-30.9,12-65.2,12.6-96.5,1.5C219.9,823.3,196.6,803.8,184.5,779.9z"/>
<path class="st3" d="M371.9,601.7c-12.1-23.9-12.9-52.1-8.3-81.5s14.8-59.9,36.1-74s53.8-11.7,74.8,2.1s30.7,38.8,54.8,63.9
	c24.1,25.1,62.5,50.3,65.6,76.2s-29.2,52.8-62.5,65.6c-30.9,12-65.2,12.6-96.5,1.5C407.3,645.2,384,625.7,371.9,601.7z"/>
<path class="st3" d="M160.6,1017.5c27-28.7,49.7-74.8,71.6-75.9s43.2,42.9,53,91s8.2,100.3-19.6,125.9s-81.7,24.6-118.5,5.3
	s-56.5-57.1-50.7-81.6S133.7,1046.2,160.6,1017.5z"/>
<path class="st6" d="M376.8,329.3c-32.5,27.9-80.1,47.5-114.8,34.1s-56.4-60-73.3-103.2s-28.6-83.4-23.1-125.7S194,47.3,232.1,22.9
	S323.3-5.8,374,7.2s98.8,43.3,110,83.1s-14.4,89.4-35.9,132.3S409.3,301.4,376.8,329.3z"/>
<path class="st2" d="M637.7,1480.5c-16.6,14.2-40.9,24.3-58.6,17.4s-28.8-30.6-37.4-52.7s-14.6-42.6-11.8-64.2s14.5-44.4,33.9-57
	s46.5-14.6,72.4-8s50.4,22.1,56.2,42.4s-7.3,45.7-18.3,67.5S654.3,1466.3,637.7,1480.5z"/>
</svg>
