<?xml version="1.0" encoding="utf-8"?>
<!-- Generator: Adobe Illustrator 17.0.0, SVG Export Plug-In . SVG Version: 6.00 Build 0)  -->
<!DOCTYPE svg PUBLIC "-//W3C//DTD SVG 1.1//EN" "http://www.w3.org/Graphics/SVG/1.1/DTD/svg11.dtd">
<svg version="1.1" id="Layer_1" xmlns="http://www.w3.org/2000/svg" xmlns:xlink="http://www.w3.org/1999/xlink" x="0px" y="0px"
	 width="520.937px" height="32.712px" viewBox="0 0 520.937 32.712" enable-background="new 0 0 520.937 32.712"
	 xml:space="preserve">
<g>
	<path fill="#0000FF" d="M20.651,20.96c0,6.14-1.758,10.963-10.325,10.963C1.758,31.9,0,27.1,0,20.96V0h7.381v23.109
		c0,2.5,1,3.9,2.9,3.903c1.977,0,2.943-1.449,2.943-3.903V0h7.382v20.96H20.651z"/>
	<path fill="#0000FF" d="M42.357,10.873c0-4.559-0.527-6.577-2.988-6.577c-2.943,0-3.207,2.808-3.207,11c0,9.3,0.3,11.7,3.4,11.71
		c2.725,0,3.031-3.116,3.076-7.983h7.119v1.098c0,6.752-1.89,11.796-11.029,11.8c-9.447,0-10.194-7.062-10.194-16.488
		c0-8.024,0.439-16.05,10.897-16.05c6.504,0,10.1,2.8,10.1,10.174v1.314h-7.174V10.873z"/>
	<path fill="#0000FF" d="M57.209,0h7.381v25.345h10.678v5.964H57.209V0z"/>
	<path fill="#0000FF" d="M87.746,0h9.227l7.821,31.309h-7.646l-1.143-5.964h-7.514l-1.1,5.964h-7.644L87.746,0z M92.227,5.7h-0.086
		l-2.594,13.945h5.36L92.227,5.7L92.227,5.7z"/>
	<path fill="#0000FF" d="M126.499,31.309v-1.623h3.295V3.99h-3.295V2.367h12.963c7.909,0,14.4,6.5,14.4,14.4
		c0,8.111-6.328,14.514-14.413,14.514h-12.95V31.309z M133.662,29.117h5.271c6.021,0,10.59-5.307,10.547-12.279
		c0-6.754-4.658-12.234-10.459-12.234h-5.359V29.117z"/>
	<path fill="#0000FF" d="M177.732,29.465c-3.297,1.887-4.834,2.413-7.381,2.413c-5.582,0-9.537-4.297-9.537-10.348
		c0-6.14,3.998-10.612,9.447-10.612c4.746,0,8,3.2,8,7.98v1.184h-13.842v0.482c0,5.5,2.9,9.3,7.1,9.3
		c1.757,0,2.942-0.437,5.404-2.016L177.732,29.465z M174.655,18.328v-1.052c0-2.632-1.802-4.517-4.35-4.517
		c-3.207,0-5.447,2.149-5.843,5.568L174.655,18.328L174.655,18.328z"/>
	<path fill="#0000FF" d="M187.003,31.703h-1.758v-6.226h2.02v1.183c0,1.9,2.5,3.6,5.2,3.6c2.417,0,4.217-1.269,4.217-3.025
		c0-1.753-1.228-2.717-5.842-4.516c-4.218-1.623-5.711-3.246-5.711-6.01c0-3.418,2.766-5.742,6.809-5.742c1.934,0,3.4,0.5,4.7,1.49
		l0.264-1.578h1.89l-1.055,6.315h-1.89c0.175-0.485,0.264-1.053,0.264-1.448c0-1.711-1.979-3.113-4.35-3.113
		c-2.286,0-3.78,1.227-3.78,3.1c0,1.9,0.3,2.1,5.6,4.254c4.306,1.7,5.7,3.2,5.7,5.963c0,3.509-2.725,5.964-6.636,6
		c-2.459,0-4.306-0.569-5.58-1.755v1.508H187.003z"/>
	<path fill="#0000FF" d="M216.133,31.309h-9.975v-1.623h3.34V13.9h-3.82v-1.186l6.325-1.709h0.792v18.68h3.338L216.133,31.309
		L216.133,31.309z M210.948,1.182c1.319,0,2.3,1,2.3,2.281c0,1.316-1.011,2.325-2.33,2.325c-1.272,0-2.284-1.009-2.284-2.325
		C208.664,2.2,209.7,1.2,210.9,1.182H210.948z"/>
	<path fill="#0000FF" d="M225.273,32.492c-1.273-0.264-1.934-0.658-3.295-2.191c1.494-2.633,2.152-3.422,4.613-5.483
		c-2.592-1.489-3.779-3.464-3.779-6.226c0-4.691,3.252-7.674,8.262-7.674c1.801,0,2.4,0.2,4.8,1.314h2.811l3.12-0.744v2.762h-3.823
		c1.057,1.2,1.4,2.3,1.4,4.078c0,4.648-3.208,7.586-8.392,7.586c-1.318,0-1.802-0.088-3.121-0.525
		c-1.318,1.358-1.846,2.192-1.846,2.981c0,0.7,0.4,1.1,1.3,1.143h10.984c2.109,0,3.3,0.4,3.3,3 M236.873,32.7h-9.975
		 M231.116,24.205c2.901,0,4.79-2.281,4.79-5.834c0-3.551-1.889-5.787-4.79-5.787c-2.942,0-4.788,2.236-4.788,5.8
		c0,3.516,1.872,5.816,4.772,5.821H231.116z"/>
	<path fill="#0000FF" d="M270.618,31.309h-9.931v-1.623h3.295V16.838c0-2.324-1.186-3.772-3.119-3.772
		c-1.89,0-2.988,0.834-6.81,5.219v11.4h3.338v1.623h-9.973v-1.623h3.34V13.9h-3.823v-1.186l6.327-1.709h0.791v4.91
		c3.295-3.815,5.185-4.998,7.996-4.998c3.252,0,5.3,2.1,5.3,5.48v13.287h3.296v1.625H270.618z"/>
	<path fill="#0000FF" d="M325.717,31.309H315.26v-1.623h3.295V8.111L307.79,31.747L296.98,7.63v22.056h3.34v1.623h-8.876v-1.623
		h3.339V3.99h-3.339V2.367h7.075l10.017,22.363l10.327-22.363h6.854V3.99h-3.295v25.695h3.295V31.309z"/>
	<path fill="#0000FF" d="M350.322,29.465c-3.295,1.887-4.834,2.413-7.381,2.413c-5.581,0-9.535-4.297-9.535-10.348
		c0-6.14,3.998-10.612,9.447-10.612c4.744,0,8,3.2,8,7.98v1.184h-13.842v0.482c0,5.5,2.9,9.3,7.1,9.3
		c1.757,0,2.944-0.437,5.405-2.016L350.322,29.465z M347.246,18.328v-1.052c0-2.632-1.801-4.517-4.35-4.517
		c-3.207,0-5.448,2.149-5.844,5.568L347.246,18.328L347.246,18.328z"/>
	<path fill="#0000FF" d="M378.486,30.081l-6.328,1.666h-0.832v-3.069c-2.416,2.411-3.955,3.2-6.196,3.2
		c-4.57,0-8.174-4.428-8.174-10.041c0-6.052,4.657-10.919,10.415-10.919c1.492,0,2.3,0.2,4,1.098V1.885h-3.824V0.699l6.328-1.709
		h0.834v29.863h3.822v1.228H378.486z M371.326,26.572V16.398c0-2.719-0.88-3.639-3.473-3.639c-4.262,0-7.117,3.377-7.117,8.4
		c0,4.9,2.2,7.8,5.8,7.85c1.363,0,2.022-0.262,3.562-1.446C370.314,27.4,370.8,27,371.3,26.572H371.326z"/>
	<path fill="#0000FF" d="M393.602,31.309h-9.975v-1.623h3.34V13.9h-3.822v-1.186l6.326-1.709h0.791v18.68h3.34L393.602,31.309
		L393.602,31.309z M388.417,1.182c1.319,0,2.3,1,2.3,2.281c0,1.316-1.01,2.325-2.329,2.325c-1.275,0-2.286-1.009-2.286-2.325
		C386.131,2.2,387.1,1.2,388.4,1.182H388.417z"/>
	<path fill="#0000FF" d="M417.065,30.475l-2.944,0.92c-0.57,0.178-1.186,0.309-1.537,0.309c-1.362,0-2.153-0.964-2.153-2.586
		c0-0.134,0-0.264,0-0.44c-1.845,2.279-3.515,3.2-5.845,3.2c-3.031,0-5.273-2.102-5.273-5.044c0-2.235,1.449-4.076,3.56-4.558
		l7.515-1.712v-4.955c0-1.754-1.318-3.025-3.077-3.025c-0.879,0-1.448,0.131-2.724,0.745v2.105l-3.91,1.1
		c-0.308-0.525-0.35-0.744-0.35-1.228c0-2.541,2.941-4.428,6.94-4.428c3.866,0,6.4,1.9,6.4,4.822v13.507h3.383v1.268H417.065z
		 M410.387,22.318l-7.515,1.754v2.194c0,1.8,1.2,3,3,3.025c1.405,0,2.549-0.614,4.482-2.325v-4.648H410.387z"/>
	<path fill="#0000FF" d="M464.65,31.309h-10.018v-1.623h3.515l-3.075-7.894l-11.248-0.042l-3.207,7.892h3.646v1.668h-8.394v-1.668
		h2.286L449.58,1.445h1.583l10.982,28.195h2.505V31.309z M454.324,19.688l-4.701-12.322l-4.965,12.322H454.324z"/>
	<path fill="#0000FF" d="M480.646,31.309H469.79v-1.623h3.341V13.9h-3.822v-1.186l6.326-1.709h0.791v4.91
		c3.165-4.033,4.307-4.998,5.888-4.998c0.529,0,1,0.1,1.2,0.395l1.361,1.186l-2.549,3.1c-0.88-0.834-1.494-1.228-1.934-1.228
		c-0.792,0-1.58,0.746-3.999,3.684v11.663h4.22v1.592H480.646z"/>
	<path fill="#0000FF" d="M501.339,29.465c-2.328,1.844-3.208,2.238-4.832,2.238c-2.55,0-4.088-1.58-4.088-4.253V13.9h-3.822v-1.186
		l3.822-0.965v-6.05h3.164v6.184h5.45V13.9h-5.45v13.154c0,1.7,0.6,2.3,2,2.28c0.924,0,1.494-0.176,2.988-1.052L501.339,29.465z"/>
	<path fill="#0000FF" d="M508.721,31.703h-1.757v-6.226h2.021v1.183c0,1.9,2.5,3.6,5.2,3.6c2.418,0,4.219-1.269,4.219-3.025
		c0-1.753-1.231-2.717-5.844-4.516c-4.217-1.623-5.712-3.246-5.712-6.01c0-3.418,2.768-5.742,6.811-5.742c1.932,0,3.4,0.5,4.7,1.49
		l0.263-1.578h1.889l-1.054,6.315h-1.89c0.176-0.485,0.264-1.053,0.264-1.448c0-1.711-1.979-3.113-4.35-3.113
		c-2.285,0-3.779,1.227-3.779,3.1c0,1.9,0.3,2.1,5.6,4.254c4.305,1.7,5.7,3.2,5.7,5.963c0,3.509-2.725,5.964-6.635,6
		c-2.462,0-4.307-0.569-5.581-1.755v1.508H508.721z"/>
</g>
</svg>
